<svg xmlns="http://www.w3.org/2000/svg" fill="none" width="445" height="133" viewBox="0 0 890 266">
  <path fill="#6A737B" d="M23.66 191.98h6.6l-8.45-12.58c4.05-1.3 5.43-4.27 5.43-8.39v-5.65c0-5.64-2.55-9.14-11.22-9.14H0v35.76h5.84v-11.83h9.84l7.98 11.83ZM5.84 161.3h10.53c4.07 0 5.03 1.38 5.03 4.62v4.68c0 3.24-.96 4.6-5.03 4.6H5.84v-13.9ZM38.53 192h23.8v-5.09H44.36v-10.46h16.58v-5.08H44.37v-10.05h17.89v-5.08H38.53V192v-.02Zm57.79-9.29c0-6.8-.55-8.18-11.08-11-7.99-2.2-8.05-2.42-8.05-6.4 0-4 .89-4.75 7.43-4.75 2.83 0 7.3.48 10.39 1.1l.48-4.8c-3.3-.83-7.9-1.31-10.93-1.31-9.9 0-13.21 2.33-13.21 9.55 0 6.75.48 8.54 10.93 11.3 8.18 2.13 8.18 2.34 8.18 6.46 0 3.79-1.17 4.81-7.15 4.81a43.2 43.2 0 0 1-11.56-1.72l-.83 4.6c3.5 1.38 8.6 2.14 12.3 2.14 11.08 0 13.07-3.3 13.07-9.98h.03Zm9.98 9.28h23.8v-5.08h-17.96v-10.46h16.58v-5.08h-16.58v-10.05h17.89v-5.08H106.3V192v-.02Zm50.77-35.76h-7.16l-13.28 35.76h5.85l2.96-7.98h16.02l3.03 7.98h5.85l-13.28-35.76Zm2.89 23.04h-12.93l6.46-18.71 6.47 18.71Zm42.31 12.72h6.6l-8.45-12.58c4.05-1.3 5.42-4.27 5.42-8.39v-5.65c0-5.64-2.54-9.14-11.2-9.14H178.6v35.76h5.84v-11.83h9.84l7.98 11.83Zm-17.82-30.69h10.53c4.06 0 5.02 1.38 5.02 4.62v4.68c0 3.24-.96 4.6-5.02 4.6h-10.53v-13.9Zm37.35 20.1v-14.58c0-4.8 2.27-6.2 8.12-6.2 2.75 0 7.01.35 10.12.9l.48-4.88c-3.79-.83-7.5-1.1-10.67-1.1-10.18 0-13.89 3.58-13.89 10.87v15.41c0 7.3 3.7 10.87 13.9 10.87 3.15 0 6.87-.28 10.66-1.11l-.48-4.88c-3.1.55-7.36.9-10.12.9-5.85 0-8.12-1.38-8.12-6.2Zm56.48 10.6v-35.77h-5.84v15h-16.8v-15h-5.83v35.76h5.84V176.3h16.8V192h5.83Zm30.48-10.6v-14.58c0-4.8 2.26-6.2 8.12-6.2 2.74 0 7 .35 10.12.9l.47-4.88a50.2 50.2 0 0 0-10.66-1.1c-10.19 0-13.9 3.58-13.9 10.87v15.41c0 7.3 3.71 10.87 13.9 10.87 3.16 0 6.88-.28 10.66-1.11l-.48-4.88c-3.09.55-7.35.9-10.11.9-5.86 0-8.12-1.38-8.12-6.2Zm55.45-14.44c0-6.12-3.57-11.41-14.65-11.41-11.07 0-14.65 5.29-14.65 11.4v14.32c0 6.14 3.58 11.42 14.65 11.42 11.08 0 14.65-5.3 14.65-11.42v-14.31Zm-5.83.2v13.9c0 4.27-2.48 6.47-8.82 6.47-6.33 0-8.8-2.2-8.8-6.47v-13.9c0-4.27 2.4-6.47 8.8-6.47s8.82 2.2 8.82 6.47Zm40.03 24.83h6.6l-8.45-12.58c4.05-1.3 5.42-4.27 5.42-8.39v-5.65c0-5.64-2.55-9.14-11.21-9.14h-16.02v35.76h5.83v-11.83h9.84l7.99 11.83Zm-17.83-30.69h10.54c4.06 0 5.02 1.38 5.02 4.62v4.68c0 3.24-.96 4.6-5.02 4.6h-10.54v-13.9Zm32.7-5.07v35.76h5.83v-11.62h9.44c8.66 0 11.21-3.5 11.21-9.15v-5.85c0-5.64-2.55-9.14-11.21-9.14h-15.28Zm5.83 5.07h9.77c4.07 0 5.03 1.38 5.03 4.62v4.74c0 3.24-.96 4.62-5.03 4.62h-9.77V161.3Zm57.04 5.66c0-6.12-3.57-11.41-14.65-11.41-11.07 0-14.65 5.29-14.65 11.4v14.32c0 6.14 3.58 11.42 14.65 11.42 11.08 0 14.65-5.3 14.65-11.42v-14.31Zm-5.83.2v13.9c0 4.27-2.48 6.47-8.82 6.47-6.33 0-8.8-2.2-8.8-6.47v-13.9c0-4.27 2.4-6.47 8.8-6.47s8.81 2.2 8.81 6.47Zm40.03 24.83h6.6l-8.46-12.58c4.06-1.3 5.43-4.27 5.43-8.39v-5.65c0-5.64-2.54-9.14-11.21-9.14h-16.02v35.76h5.83v-11.83h9.84l7.99 11.83Zm-17.83-30.69h10.54c4.06 0 5.02 1.38 5.02 4.62v4.68c0 3.24-.96 4.6-5.02 4.6h-10.54v-13.9Zm49.69-5.07h-7.16l-13.28 35.76h5.86l2.96-7.98h16.02l3.02 7.98h5.86l-13.28-35.76Zm2.88 23.04h-12.93l6.46-18.71 6.47 18.71Zm23.4 12.72h5.83v-30.62h11.76v-5.14h-29.37v5.14h11.77v30.62Zm31.02-35.76h-5.84v35.76h5.84v-35.76Zm40.17 10.73c0-6.12-3.57-11.41-14.65-11.41-11.07 0-14.65 5.29-14.65 11.4v14.32c0 6.14 3.58 11.42 14.65 11.42 11.08 0 14.65-5.3 14.65-11.42v-14.31Zm-5.83.2v13.9c0 4.27-2.48 6.47-8.82 6.47-6.33 0-8.8-2.2-8.8-6.47v-13.9c0-4.27 2.4-6.47 8.8-6.47s8.82 2.2 8.82 6.47Zm38.72 24.83h7.36v-35.76h-5.56v28.68l-16.8-28.68h-7.35v35.76h5.55V163.3l16.8 28.7Zm-504.41 73.77c3.4-2.95 4.8-5.04 5.6-9.39l4.58-25.97h7.7l1-3.89h-8.03l.85-4.81c.45-2.67 1.47-3.68 4.24-3.68 1.41 0 3.05.28 4.64.78l.96-3.56a16.29 16.29 0 0 0-5.88-1.13c-5.26 0-7.7 2.38-8.6 7.57l-.85 4.82h-4.81l-.68 3.89h4.8l-4.4 24.89c-.63 3.62-1.59 5.37-3.96 7.58l2.82 2.88.02.02Zm27.03-11.13c8.55 0 11.83-3.67 12.9-9.9l1.51-8.65c.18-.9.18-1.53.18-1.92 0-4.7-3.28-8.2-9.62-8.2-7.91 0-11.77 3.44-12.95 10.17l-1.42 8.04c-1.08 5.95 1.54 10.47 9.39 10.47l.01-.01Zm8.32-10.19c-.73 4.13-2.88 6.17-7.64 6.17-5.14 0-6.05-2.42-5.42-6.22l1.4-7.99c.74-4.3 3.12-6.45 7.65-6.45 3.9 0 5.65 1.47 5.65 4.47 0 .45-.05 1-.17 1.64l-1.47 8.37v.01Zm26.3-18.49a34.27 34.27 0 0 0-7.86 4.75l.5-4.52-4.13.68-4.81 27.2h4.64l3.22-18.31c2.6-1.92 5.5-3.84 8.6-5.55l-.17-4.24.01-.01Zm40.73 18.82c0-6.8-.55-8.18-11.08-11-7.98-2.2-8.05-2.42-8.05-6.4 0-4 .9-4.75 7.44-4.75 2.82 0 7.29.48 10.38 1.1l.48-4.8c-3.3-.83-7.9-1.31-10.93-1.31-9.9 0-13.21 2.33-13.21 9.55 0 6.75.48 8.53 10.93 11.3 8.19 2.13 8.19 2.33 8.19 6.46 0 3.79-1.18 4.81-7.16 4.81-3.5 0-7.77-.61-11.56-1.72l-.83 4.6c3.5 1.38 8.6 2.13 12.32 2.13 11.08 0 13.06-3.29 13.06-9.97h.02Zm14.65-1.3v-14.59c0-4.81 2.26-6.2 8.12-6.2 2.74 0 7 .35 10.12.9l.47-4.88a50.2 50.2 0 0 0-10.66-1.1c-10.18 0-13.89 3.58-13.89 10.87v15.42c0 7.3 3.7 10.87 13.9 10.87 3.15 0 6.87-.28 10.65-1.1l-.47-4.87c-3.1.54-7.36.89-10.12.89-5.86 0-8.12-1.37-8.12-6.2v-.01Zm34.2-25.19h-5.85v35.77h5.84v-35.77Zm12.04 35.77h23.8v-5.08h-17.96v-10.46h16.59v-5.08h-16.59v-10.05h17.9v-5.08h-23.74v35.76Zm56.14 0h7.36v-35.77h-5.56v28.7l-16.8-28.7h-7.36v35.77h5.56v-28.69l16.8 28.7Zm23.73-10.58v-14.59c0-4.81 2.27-6.2 8.12-6.2 2.74 0 7.01.35 10.12.9l.48-4.88a50.5 50.5 0 0 0-10.67-1.1c-10.18 0-13.89 3.58-13.89 10.87v15.42c0 7.3 3.7 10.87 13.9 10.87 3.15 0 6.87-.28 10.66-1.1l-.48-4.87c-3.1.54-7.36.89-10.12.89-5.85 0-8.12-1.37-8.12-6.2v-.01Zm28 10.58h23.8v-5.08h-17.95v-10.46h16.58v-5.08h-16.58v-10.05h17.89v-5.08H439.3v35.76Zm64.88-35.77h-7.16l-13.28 35.77h5.85l2.96-7.98h16.02l3.03 7.98h5.85l-13.27-35.77Zm2.89 23.05h-12.93l6.46-18.71 6.47 18.71Zm18.65-23.05v35.77h14.3c10.12 0 12.65-4.66 12.65-11.28v-13.2c0-6.6-2.54-11.28-12.65-11.28h-14.3Zm5.84 5.08h8.05c5.44 0 7.23 1.86 7.23 6.2v13.21c0 4.34-1.8 6.2-7.23 6.2h-8.05v-25.6Zm58.61-5.08h-5.78l-10.53 30.83-10.53-30.83h-5.78l12.52 35.77h7.57l12.52-35.77h.01Zm21.53 0h-7.16l-13.27 35.77h5.85l2.96-7.98h16.02l3.03 7.98h5.85l-13.28-35.77Zm2.9 23.05h-12.94l6.47-18.71 6.47 18.71Zm41 12.72h7.36v-35.77h-5.56v28.7l-16.8-28.7h-7.35v35.77h5.55v-28.69l16.8 28.7Zm23.73-10.58v-14.59c0-4.81 2.27-6.2 8.12-6.2 2.75 0 7.01.35 10.12.9l.48-4.88c-3.79-.83-7.5-1.1-10.67-1.1-10.18 0-13.89 3.58-13.89 10.87v15.42c0 7.3 3.7 10.87 13.9 10.87 3.15 0 6.87-.28 10.66-1.1l-.48-4.87c-3.1.54-7.36.89-10.12.89-5.85 0-8.12-1.37-8.12-6.2v-.01Zm28 10.58h23.8v-5.08h-17.95v-10.46h16.58v-5.08h-16.58v-10.05h17.89v-5.08h-23.73v35.76Zm65.78 0h5.71l-1.5-35.77h-6.95l-10.73 26.7-10.74-26.7h-6.94l-1.52 35.77h5.7l.83-27.23 9.16 22.77h7.03l9.15-22.77.83 27.23h-.03Zm16.72 0h23.8v-5.08h-17.96v-10.46h16.58v-5.08h-16.58v-10.05h17.89v-5.08h-23.73v35.76Zm56.14 0h7.36v-35.77h-5.56v28.7l-16.8-28.7h-7.36v35.77h5.56v-28.69l16.8 28.7Zm26.35 0h5.84v-30.62h11.77v-5.15h-29.36v5.15h11.77v30.62h-.02Z"/>
  <path fill="url(#a)" d="M724.75 63c-7.05 0-10.66.08-16.77.08a33.77 33.77 0 1 0 0 67.54c6.1 0 10.73.08 16.77.08-10.14-5.83-17-21.3-17-33.85s6.86-28.02 17-33.85Z"/>
  <path fill="url(#b)" d="M758.95.4c-6.04 0-10.67.08-16.77.08a33.77 33.77 0 1 0 0 67.54c6.1 0 10.64.08 16.77.08-10.15-5.83-17-21.3-17-33.85 0-12.53 6.85-28.02 17-33.85Z"/>
  <path fill="url(#c)" d="M724.74 63.27c6.04 0 10.67.08 16.78.08 3.48 0 11.22-.39 11.66.08.36.37.43.47.84.87a21.2 21.2 0 0 0 1.68 1.54 23.35 23.35 0 0 0 3.38 2.4 33.44 33.44 0 0 1 16.21 28.85 33.77 33.77 0 0 1-33.77 33.77c-6.11 0-10.65.08-16.78.08 10.15-5.82 17-21.3 17-33.85 0-12.54-6.85-28.02-17-33.85v.03Z"/>
  <path fill="url(#d)" d="M758.95 126c-6.04 0-10.67.08-16.77.08a33.77 33.77 0 1 0 0 67.54c6.1 0 10.64.08 16.77.08-10.15-5.83-17-21.3-17-33.85s6.85-28.02 17-33.85Z"/>
  <path fill="url(#e)" d="M759 .4c7.05 0 10.67.08 16.78.08a33.77 33.77 0 1 1 0 67.54c-6.11 0-10.74.08-16.78.08 10.15-5.83 17-21.3 17-33.85 0-12.53-6.85-28.02-17-33.85Z"/>
  <path fill="url(#f)" d="M759 126c7.05 0 10.67.08 16.78.08a33.77 33.77 0 1 1 0 67.54c-6.11 0-10.74.08-16.78.08 10.15-5.83 17-21.3 17-33.85s-6.85-28.02-17-33.85Z"/>
  <defs>
    <linearGradient id="a" x1="699.48" x2="699.48" y1="63" y2="130.7" gradientUnits="userSpaceOnUse">
      <stop offset=".28" stop-color="#00A4E4"/>
      <stop offset="1" stop-color="#0076BE"/>
    </linearGradient>
    <linearGradient id="b" x1="741.63" x2="741.63" y1=".4" y2="193.55" gradientUnits="userSpaceOnUse">
      <stop stop-color="#00A4E4"/>
      <stop offset=".33" stop-color="#0076BE"/>
      <stop offset=".66" stop-color="#00A4E4"/>
      <stop offset="1" stop-color="#0076BE"/>
    </linearGradient>
    <linearGradient id="c" x1="741.84" x2="741.84" y1=".61" y2="193.76" gradientUnits="userSpaceOnUse">
      <stop stop-color="#00A4E4"/>
      <stop offset=".33" stop-color="#0076BE"/>
      <stop offset=".66" stop-color="#00A4E4"/>
      <stop offset="1" stop-color="#0076BE"/>
    </linearGradient>
    <linearGradient id="d" x1="741.86" x2="741.86" y1=".55" y2="193.7" gradientUnits="userSpaceOnUse">
      <stop stop-color="#00A4E4"/>
      <stop offset=".33" stop-color="#0076BE"/>
      <stop offset=".66" stop-color="#00A4E4"/>
      <stop offset="1" stop-color="#0076BE"/>
    </linearGradient>
    <linearGradient id="e" x1="784.28" x2="784.28" y1=".4" y2="68.1" gradientUnits="userSpaceOnUse">
      <stop stop-color="#0076BE"/>
      <stop offset=".6" stop-color="#00A4E4"/>
    </linearGradient>
    <linearGradient id="f" x1="784.28" x2="784.28" y1="126" y2="193.7" gradientUnits="userSpaceOnUse">
      <stop stop-color="#0076BE"/>
      <stop offset=".6" stop-color="#00A4E4"/>
    </linearGradient>
  </defs>
</svg>
