<?xml version="1.0" encoding="utf-8"?>
<!-- Generator: Adobe Illustrator 16.0.0, SVG Export Plug-In . SVG Version: 6.00 Build 0)  -->
<!DOCTYPE svg PUBLIC "-//W3C//DTD SVG 1.1//EN" "http://www.w3.org/Graphics/SVG/1.1/DTD/svg11.dtd">
<svg version="1.1" id="Layer_1" xmlns="http://www.w3.org/2000/svg" xmlns:xlink="http://www.w3.org/1999/xlink" x="0px" y="0px"
	 width="369.422px" height="348.76px" viewBox="0 0 369.422 348.76" enable-background="new 0 0 369.422 348.76"
	 xml:space="preserve">
<path fill="none" stroke="#FF530E" stroke-width="16" stroke-miterlimit="10" d="M60.306,222.983
	c-13.624-23.569-27.248-47.139-40.872-70.708c-13.203-22.841-0.918-29.996,12.472-53.161c8.418-14.563,18.569-49.131,37.115-49.131
	c21.026,0,73.415-10.315,91.285,0c15.915,9.187,31.607,54.681,40.872,70.708c13.203,22.841,0.918,29.996-12.472,53.161
	c-8.418,14.563-18.569,49.131-37.115,49.131C121.162,222.983,90.734,222.983,60.306,222.983z"/>
<text transform="matrix(1 0 0 1 63.8521 160.1992)" fill="#FF530E" font-family="'Helvetica'" font-size="72">Ca</text>
<path fill="#00273D" d="M313.193,322.825c-30.721,0.089-61.443,0.178-92.164,0.267c-27.557,0.079-30.985-23.87-44.515-47.122
	c-13.523-23.242-32.674-38.07-18.956-61.962c10.439-18.181,27.919-69.442,45.859-79.867c17.946-10.428,71.191-0.205,92.164-0.265
	c27.557-0.08,30.985,23.869,44.516,47.122c13.523,23.241,32.674,38.069,18.955,61.961
	C343.766,269.581,328.48,296.203,313.193,322.825z M213.148,307.114c23.721-0.068,47.441-0.137,71.162-0.205
	c28.075-0.081,28.006-14.688,42.18-39.372c8.222-14.318,26.803-32.048,17.832-47.465c-9.384-16.126-24.939-61.09-40.859-70.219
	c-13.854-7.945-55.132,0.159-71.162,0.205c-28.075,0.081-28.006,14.688-42.18,39.372c-8.222,14.318-26.803,32.047-17.832,47.465
	C185.909,260.302,199.528,283.708,213.148,307.114z"/>
<text transform="matrix(1 0 0 1 212.3057 250.5381)" fill="#00273D" font-family="'Helvetica'" font-size="72">Re</text>
<g>
	<line fill="none" stroke="#FF530E" stroke-width="2" stroke-miterlimit="10" x1="164.505" y1="44.802" x2="180.207" y2="29.1"/>
	<line fill="none" stroke="#FF530E" stroke-width="2" stroke-miterlimit="10" x1="179.868" y1="28.983" x2="245.868" y2="28.983"/>
	<g>
		<line fill="none" stroke="#FF530E" stroke-width="2" stroke-miterlimit="10" x1="245.868" y1="28.983" x2="258.305" y2="5.133"/>
		<line fill="none" stroke="#FF530E" stroke-width="2" stroke-miterlimit="10" x1="245.868" y1="28.983" x2="258.305" y2="52.834"/>
	</g>
	<rect x="252.868" y="48.983" fill="#FF530E" width="10" height="10"/>
	<rect x="174.868" y="23.983" fill="#FF530E" width="10" height="10"/>
</g>
<ellipse fill="none" stroke="#FF530E" stroke-width="8" stroke-miterlimit="10" cx="110.731" cy="136.059" rx="55.846" ry="55"/>
<path fill="#00273D" d="M257.897,286.06c-77.036,0.224-77.375-117.777-0.34-117.999C334.591,167.838,334.931,285.839,257.897,286.06
	C224.897,286.155,290.896,285.965,257.897,286.06z M257.58,176.061c-66.719,0.191-66.426,102.192,0.293,101.999
	C324.592,277.868,324.299,175.868,257.58,176.061C228.992,176.143,286.168,175.978,257.58,176.061z"/>
<g>
	
		<line fill="none" stroke="#00273D" stroke-width="2" stroke-miterlimit="10" x1="201.868" y1="316.165" x2="186.165" y2="331.867"/>
	
		<line fill="none" stroke="#00273D" stroke-width="2" stroke-miterlimit="10" x1="186.868" y1="332.983" x2="120.868" y2="332.983"/>
	<rect x="180.868" y="327.983" fill="#00273D" width="10" height="10"/>
	<polygon fill="#00273D" points="148.868,342.697 136.868,332.857 148.868,323.016 	"/>
	
		<line fill="none" stroke="#00273D" stroke-width="3" stroke-miterlimit="10" x1="132.368" y1="321.983" x2="132.368" y2="344.983"/>
</g>
</svg>
