<?xml version="1.0" encoding="utf-8"?>
<!-- Generator: Adobe Illustrator 23.1.1, SVG Export Plug-In . SVG Version: 6.00 Build 0)  -->
<svg version="1.1" id="Layer_1" xmlns="http://www.w3.org/2000/svg" xmlns:xlink="http://www.w3.org/1999/xlink" x="0px" y="0px"
	 viewBox="0 0 671.7 301.9" style="enable-background:new 0 0 671.7 301.9;" xml:space="preserve">
<style type="text/css">
	.st0{fill:#FF530E;}
</style>
<title>logo-plex-white</title>
<g>
	<g id="Layer_1-2">
		<path class="st0" d="M179.2,237.2c-6.1,0.1-12.2-1-17.9-3.1c-5.2-2-9.8-5.2-13.5-9.4c-3.9-4.5-6.9-9.8-8.6-15.5
			c-2.2-7-3.2-14.3-3.1-21.7c-0.1-7.4,0.9-14.8,3.1-21.8c1.8-5.9,4.7-11.3,8.6-16.1c3.7-4.3,8.3-7.7,13.5-9.8
			c5.7-2.3,11.7-3.4,17.9-3.4c9,0,16.5,1.8,22.3,5.5s10.6,9.5,14.1,17.4l-18.3,9.5c-1.1-3.8-3.2-7.2-6.1-9.8
			c-2.7-2.5-6.8-3.7-12.1-3.7c-6.2,0-11.2,2-15,6.1s-5.7,9.9-5.7,17.6v15.6c0,7.7,1.9,13.6,5.6,17.6s8.8,6.1,15,6.1
			c5.2,0,9.4-1.4,12.5-4.2c3.1-2.8,5.5-6.3,6.9-10.3l17.3,10c-3.2,6.9-8.1,12.8-14.3,17.2C195.7,235.2,188.2,237.2,179.2,237.2z"/>
		<path class="st0" d="M288.2,235.6l-7-23.2h-32.5l-7,23.2h-21.5l32.1-97.4h26.2l31.7,97.4L288.2,235.6z M265.2,157.4h-0.7l-10.8,37
			H276L265.2,157.4z"/>
		<path class="st0" d="M352.1,189.5l-9.3-19.5h-0.4v65.6h-20v-97.4h23.2l26.7,46l9.3,19.5h0.4v-65.6h20v97.4h-23.2L352.1,189.5z"/>
		<path class="st0" d="M422,235.6v-97.4h66.3V157h-45.1v19.8h38.6v18.8h-38.6v21.1h45.1v18.8L422,235.6z"/>
		<path class="st0" d="M505.3,235.6v-97.4h46c4.2-0.1,8.4,0.7,12.3,2.3c3.5,1.4,6.7,3.6,9.3,6.4c2.6,2.8,4.7,6.2,5.9,9.8
			c2.8,8.2,2.8,17.1,0,25.3c-1.3,3.6-3.3,7-5.9,9.8c-2.6,2.7-5.8,4.9-9.3,6.4c-3.9,1.6-8.1,2.4-12.3,2.3h-24.8v35.2H505.3z
			 M526.5,182h22.3c2.7,0.2,5.4-0.7,7.5-2.4c1.8-1.6,2.7-4,2.7-7.2v-6.1c0-3.2-0.9-5.6-2.7-7.2c-2.1-1.7-4.8-2.6-7.5-2.4h-22.3V182z
			"/>
		<path class="st0" d="M645.3,235.6l-7-23.2h-32.5l-7,23.2h-21.5l32.1-97.4h26.2l31.7,97.4L645.3,235.6z M622.3,157.4h-0.7l-10.7,37
			h22.3L622.3,157.4z"/>
		<path class="st0" d="M96.5,97.1c-1.9,0-3.8-0.3-5.5-1c-1.6-0.6-3-1.6-4.2-2.9c-1.2-1.4-2.1-3-2.7-4.8c-0.7-2.2-1-4.4-1-6.7
			c0-2.3,0.3-4.6,1-6.8c0.6-1.8,1.5-3.5,2.7-5c1.1-1.3,2.6-2.3,4.2-3c1.8-0.7,3.6-1,5.5-1c2.4-0.1,4.8,0.5,6.9,1.7
			c2,1.3,3.5,3.2,4.4,5.4l-5.7,2.9c-0.3-1.2-1-2.2-1.9-3.1c-1.1-0.8-2.4-1.2-3.8-1.1c-1.7-0.1-3.4,0.6-4.7,1.9
			C90.6,75.1,90,77,90.1,79v4.8c-0.1,2,0.5,3.9,1.8,5.5c1.2,1.3,2.9,2,4.7,1.9c1.4,0.1,2.8-0.4,3.9-1.3c1-0.9,1.7-2,2.1-3.2l5.4,3.1
			c-1,2.1-2.5,4-4.4,5.3C101.4,96.5,99,97.2,96.5,97.1z"/>
		<path class="st0" d="M130.8,96.5l-2.2-7.2h-10.1l-2.2,7.2h-6.7l10-30.2h8.1l9.8,30.2H130.8z M123.6,72.3h-0.2l-3.3,11.5h6.9
			L123.6,72.3z"/>
		<polygon class="st0" points="119.7,137.6 59.5,102.9 59.5,33.4 117.5,0 122,7.8 68.5,38.6 68.5,97.7 119.7,127.3 173.1,96.4 
			177.6,104.2 		"/>
		<path class="st0" d="M27.3,208.6h-6.6v-30.2h14.3c1.3,0,2.6,0.2,3.8,0.7c1.1,0.5,2.1,1.1,2.9,2c0.8,0.9,1.4,1.9,1.8,3
			c0.4,1.3,0.7,2.6,0.7,3.9c0,1.9-0.4,3.7-1.4,5.4c-0.9,1.6-2.4,2.7-4.1,3.3l5.9,11.9h-7.3l-5.3-11.1h-4.7V208.6z M34.3,192
			c0.8,0,1.7-0.2,2.3-0.8c0.6-0.6,0.9-1.4,0.8-2.2v-1.9c0.1-0.8-0.3-1.6-0.8-2.2c-0.6-0.5-1.5-0.8-2.3-0.8h-6.9v7.9H34.3z"/>
		<path class="st0" d="M49.9,208.6v-30.2h20.6v5.9h-14v6.1h12v5.8h-12v6.5h14v5.9H49.9z"/>
		<polygon class="st0" points="60.2,248.9 55.7,241.1 109.1,210.3 109.1,151.2 57.9,121.7 4.5,152.5 0,144.7 57.9,111.3 118.1,146 
			118.1,215.5 		"/>
		<path class="st0" d="M149,301h-11.1v-51H162c2.2,0,4.3,0.4,6.4,1.2c1.8,0.7,3.5,1.9,4.9,3.3c1.4,1.5,2.4,3.2,3.1,5.1
			c0.8,2.1,1.1,4.4,1.1,6.6c0.1,3.2-0.7,6.3-2.3,9.1c-1.6,2.6-4.1,4.6-7,5.6l10,20h-12.3l-8.9-18.7h-8L149,301z M160.7,273
			c1.4,0.1,2.8-0.4,3.9-1.3c1-1,1.5-2.4,1.4-3.8v-3.2c0.1-1.4-0.4-2.8-1.4-3.8c-1.1-0.9-2.5-1.4-3.9-1.3H149v13.3L160.7,273z"/>
		<path class="st0" d="M187.5,301v-51h34.7v9.9h-23.6v10.4h20.2v9.9h-20.2v11h23.6v9.9H187.5z"/>
		<path class="st0" d="M248.7,301.9c-3.9,0.1-7.8-0.7-11.4-2.3c-3-1.5-5.7-3.5-8-6l7.3-7.4c3.2,3.8,7.9,5.9,12.8,5.8
			c2.7,0,4.7-0.6,6.1-1.7c1.3-1.1,2.1-2.7,2-4.4c0-1.3-0.4-2.5-1.2-3.5c-0.8-0.9-2.4-1.6-4.8-1.9l-5-0.6c-5.4-0.7-9.4-2.3-11.9-4.9
			c-2.5-2.6-3.8-6-3.8-10.3c0-2.2,0.4-4.3,1.3-6.3c0.9-1.9,2.2-3.6,3.8-4.9c1.8-1.4,3.8-2.5,6-3.2c2.6-0.8,5.3-1.2,8.1-1.1
			c3.5,0,6.9,0.6,10.1,1.9c2.9,1.2,5.4,3,7.5,5.3l-7.4,7.5c-1.2-1.4-2.7-2.6-4.4-3.4c-2-1-4.3-1.4-6.5-1.3c-1.9-0.1-3.9,0.3-5.6,1.3
			c-1.2,0.8-1.8,2.2-1.8,3.6c-0.1,1.4,0.4,2.8,1.4,3.8c1.4,0.9,3,1.5,4.6,1.7l5,0.8c5.3,0.8,9.2,2.5,11.7,4.9s3.8,5.8,3.8,10.3
			c0,2.3-0.4,4.6-1.3,6.7c-0.9,2-2.2,3.8-3.8,5.3c-1.8,1.5-4,2.7-6.2,3.4C254.4,301.5,251.5,301.9,248.7,301.9z"/>
		<path class="st0" d="M278.1,301v-51h34.7v9.9h-23.6v10.4h20.2v9.9h-20.2v11h23.6v9.9H278.1z"/>
		<path class="st0" d="M354.2,301l-3.6-12.1h-17l-3.7,12.1h-11.2l16.8-51h13.7l16.6,51H354.2z M342.2,260.1h-0.4l-5.6,19.4h11.7
			L342.2,260.1z"/>
		<path class="st0" d="M384.3,301h-11.1v-51h24.2c2.2,0,4.3,0.4,6.4,1.2c1.8,0.7,3.5,1.9,4.9,3.3c1.4,1.5,2.4,3.2,3.1,5.1
			c0.8,2.1,1.1,4.4,1.1,6.6c0.1,3.2-0.7,6.3-2.3,9.1c-1.6,2.6-4.1,4.6-7,5.6l10,20h-12.3l-8.9-18.7h-8L384.3,301z M396,272.9
			c1.4,0.1,2.8-0.4,3.9-1.3c1-1,1.5-2.4,1.4-3.8v-3.2c0.1-1.4-0.4-2.8-1.4-3.8c-1.1-0.9-2.5-1.4-3.9-1.3h-11.7v13.3H396z"/>
		<path class="st0" d="M442.7,301.9c-3.2,0-6.4-0.5-9.4-1.6c-2.7-1.1-5.1-2.7-7.1-4.9c-2.1-2.4-3.6-5.1-4.5-8.1
			c-1.1-3.7-1.7-7.5-1.6-11.4c-0.1-3.9,0.5-7.7,1.6-11.4c0.9-3.1,2.5-5.9,4.5-8.4c1.9-2.2,4.3-4,7.1-5.1c3-1.2,6.1-1.8,9.4-1.8
			c4.7,0,8.6,1,11.7,2.9c3.3,2.2,5.9,5.4,7.4,9.1l-9.6,5c-0.6-2-1.7-3.7-3.2-5.1c-1.4-1.3-3.5-1.9-6.3-1.9c-3-0.1-5.8,1-7.9,3.2
			c-2,2.1-3,5.2-3,9.2v8.2c0,4,1,7.1,3,9.2c2,2.1,4.9,3.3,7.9,3.2c2.4,0.1,4.7-0.7,6.5-2.2c1.6-1.5,2.9-3.3,3.6-5.4l9.1,5.3
			c-1.7,3.6-4.2,6.7-7.5,9C450.9,300.9,446.8,302,442.7,301.9z"/>
		<path class="st0" d="M500.5,280.1h-19.4V301H470v-51h11.1v20.2h19.4V250h11.1v51h-11.1L500.5,280.1z"/>
		<path class="st0" d="M540.8,301v-51h11.1v41.1h19.4v9.9H540.8z"/>
		<path class="st0" d="M612.5,301l-3.7-12.1h-17l-3.7,12.1H577l16.8-51h13.7l16.6,51H612.5z M600.5,260.1h-0.4l-5.6,19.4h11.6
			L600.5,260.1z"/>
		<path class="st0" d="M631.5,250h24.8c4.2,0,7.5,1.2,9.9,3.6c2.4,2.6,3.7,6,3.5,9.5c0,1.7-0.2,3.4-0.8,5c-0.4,1.2-1.1,2.4-2,3.4
			c-0.8,0.9-1.9,1.5-3,1.9c-1.2,0.4-2.4,0.7-3.7,0.7v0.4c1.3,0,2.6,0.2,3.8,0.7c1.4,0.4,2.6,1.2,3.7,2.1c1.2,1,2.1,2.3,2.8,3.7
			c0.8,1.7,1.2,3.6,1.1,5.5c0,1.9-0.3,3.8-1,5.7c-0.6,1.7-1.5,3.3-2.7,4.6c-1.2,1.3-2.6,2.4-4.2,3.1c-1.6,0.8-3.4,1.1-5.3,1.1h-27
			L631.5,250z M642.6,270.9h11c2.4,0.2,4.5-1.5,4.7-3.9c0-0.3,0-0.5,0-0.8V264c0.2-2.4-1.5-4.5-3.9-4.7c-0.3,0-0.5,0-0.8,0h-11
			V270.9z M642.6,291.6h12.8c1.3,0.1,2.5-0.4,3.5-1.2c0.9-0.9,1.3-2.1,1.3-3.4v-2.5c0.1-1.3-0.4-2.5-1.3-3.4c-1-0.8-2.2-1.3-3.5-1.2
			h-12.8L642.6,291.6z"/>
	</g>
</g>
</svg>
