<svg xmlns="http://www.w3.org/2000/svg" viewBox="0 0 671.72 301.86"><defs><style>.cls-1{fill:#fff;}</style></defs><title>logo-plex-white</title><g id="Layer_2" data-name="Layer 2"><g id="Layer_1-2" data-name="Layer 1"><path class="cls-1" d="M179.19,237.22a48.32,48.32,0,0,1-17.86-3.14,35.4,35.4,0,0,1-13.54-9.35,43.08,43.08,0,0,1-8.65-15.49,69,69,0,0,1-3.07-21.7,71.23,71.23,0,0,1,3.07-21.83,45.66,45.66,0,0,1,8.65-16.05,36,36,0,0,1,13.54-9.84,45.63,45.63,0,0,1,17.86-3.35q13.53,0,22.33,5.51t14.09,17.38l-18.28,9.49a21.71,21.71,0,0,0-6.07-9.84q-4.11-3.7-12.07-3.7-9.34,0-15,6.07T158.54,179v15.63q0,11.58,5.65,17.65t15,6.07q7.81,0,12.49-4.25a26,26,0,0,0,6.91-10.26l17.3,10a43.39,43.39,0,0,1-14.3,17.23Q192.73,237.22,179.19,237.22Z"/><path class="cls-1" d="M288.17,235.55l-7-23.17H248.68l-7,23.17H220.21l32.1-97.4h26.23l31.68,97.4Zm-23-78.15h-.7l-10.75,37H276Z"/><path class="cls-1" d="M352.08,189.5,342.73,170h-.42v65.59H322.36v-97.4h23.16l26.66,46,9.34,19.54h.42V138.15h20v97.4H378.73Z"/><path class="cls-1" d="M422,235.55v-97.4h66.28V157H443.2V176.8h38.65v18.84H443.2v21.07h45.07v18.84Z"/><path class="cls-1" d="M505.3,235.55v-97.4h46a31.12,31.12,0,0,1,12.28,2.3,27.14,27.14,0,0,1,9.28,6.35,27.77,27.77,0,0,1,5.93,9.84,39.21,39.21,0,0,1,0,25.32,27.82,27.82,0,0,1-5.93,9.77,27.28,27.28,0,0,1-9.28,6.35,31.3,31.3,0,0,1-12.28,2.3H526.51v35.17ZM526.51,182h22.32a10.77,10.77,0,0,0,7.47-2.44q2.72-2.45,2.72-7.18v-6.15q0-4.74-2.72-7.18a10.78,10.78,0,0,0-7.47-2.45H526.51Z"/><path class="cls-1" d="M645.26,235.55l-7-23.17H605.77l-7,23.17H577.3l32.09-97.4h26.24l31.67,97.4Zm-23-78.15h-.7l-10.74,37h22.33Z"/><path class="cls-1" d="M96.52,97.06a14.94,14.94,0,0,1-5.54-1,11,11,0,0,1-4.2-2.9,13.42,13.42,0,0,1-2.69-4.81,21.6,21.6,0,0,1-1-6.73,22.34,22.34,0,0,1,1-6.78,14.32,14.32,0,0,1,2.69-5,11.11,11.11,0,0,1,4.2-3,14.17,14.17,0,0,1,5.54-1,12.85,12.85,0,0,1,6.93,1.71,11.75,11.75,0,0,1,4.37,5.39l-5.67,2.95a6.77,6.77,0,0,0-1.88-3.06,5.48,5.48,0,0,0-3.75-1.14,6.07,6.07,0,0,0-4.65,1.88A7.76,7.76,0,0,0,90.11,79v4.85a7.78,7.78,0,0,0,1.76,5.48,6.07,6.07,0,0,0,4.65,1.88,5.55,5.55,0,0,0,3.88-1.32,8.07,8.07,0,0,0,2.14-3.18l5.37,3.11a13.46,13.46,0,0,1-4.44,5.35A12,12,0,0,1,96.52,97.06Z"/><path class="cls-1" d="M130.77,96.54l-2.16-7.18H118.52l-2.17,7.18h-6.67l10-30.22h8.14l9.83,30.22ZM123.63,72.3h-.22l-3.33,11.47H127Z"/><polygon class="cls-1" points="119.71 137.65 59.54 102.91 59.54 33.44 117.46 0 121.96 7.79 68.54 38.63 68.54 97.72 119.71 127.26 173.12 96.42 177.62 104.21 119.71 137.65"/><path class="cls-1" d="M27.33,208.61H20.75V178.38H35.08a9.7,9.7,0,0,1,3.77.7,8.17,8.17,0,0,1,2.88,2,9.08,9.08,0,0,1,1.84,3,11.47,11.47,0,0,1,.65,3.94,10.31,10.31,0,0,1-1.37,5.37,7.81,7.81,0,0,1-4.13,3.33l5.93,11.87H37.33l-5.28-11.09H27.33ZM34.26,192a3.3,3.3,0,0,0,2.31-.76,2.82,2.82,0,0,0,.85-2.23v-1.9a2.82,2.82,0,0,0-.85-2.23,3.3,3.3,0,0,0-2.31-.76H27.33V192Z"/><path class="cls-1" d="M49.93,208.61V178.38H70.5v5.85h-14v6.15h12v5.84h-12v6.54h14v5.85Z"/><polygon class="cls-1" points="60.17 248.94 55.67 241.15 109.08 210.31 109.08 151.22 57.92 121.69 4.5 152.52 0 144.73 57.92 111.29 118.08 146.03 118.08 215.5 60.17 248.94"/><path class="cls-1" d="M149,301h-11.1V250H162a16.6,16.6,0,0,1,6.36,1.17,13.6,13.6,0,0,1,4.86,3.33,15.05,15.05,0,0,1,3.1,5.15,19.19,19.19,0,0,1,1.1,6.64,17.34,17.34,0,0,1-2.31,9.06,13.17,13.17,0,0,1-7,5.62l10,20H165.84l-8.91-18.7h-8Zm11.68-28.05a5.65,5.65,0,0,0,3.91-1.28A4.8,4.8,0,0,0,166,267.9v-3.22a4.81,4.81,0,0,0-1.43-3.76,5.65,5.65,0,0,0-3.91-1.27H149v13.29Z"/><path class="cls-1" d="M187.46,301V250h34.69v9.87H198.56v10.37h20.23v9.86H198.56v11h23.59V301Z"/><path class="cls-1" d="M248.67,301.86a25.57,25.57,0,0,1-11.4-2.3,26.15,26.15,0,0,1-8-6l7.31-7.39A16.47,16.47,0,0,0,249.4,292q4.09,0,6.06-1.66a5.47,5.47,0,0,0,2-4.42,5.36,5.36,0,0,0-1.16-3.51c-.78-.94-2.37-1.58-4.75-1.92l-5-.65q-8.11-1-11.87-4.9t-3.76-10.31a14.94,14.94,0,0,1,1.31-6.29,14,14,0,0,1,3.76-4.9,17.71,17.71,0,0,1,6-3.18,26.62,26.62,0,0,1,8.07-1.13A26.24,26.24,0,0,1,260.14,251a20.61,20.61,0,0,1,7.52,5.34l-7.38,7.46a14.71,14.71,0,0,0-4.42-3.43,14.06,14.06,0,0,0-6.53-1.34,9.61,9.61,0,0,0-5.56,1.3A4.2,4.2,0,0,0,242,263.9a4.56,4.56,0,0,0,1.42,3.76,10,10,0,0,0,4.64,1.67l5,.8q7.89,1.25,11.69,4.86t3.8,10.28a16.86,16.86,0,0,1-1.32,6.72,14.42,14.42,0,0,1-3.83,5.27,17.76,17.76,0,0,1-6.25,3.4A27.59,27.59,0,0,1,248.67,301.86Z"/><path class="cls-1" d="M278.1,301V250h34.7v9.87H289.2v10.37h20.24v9.86H289.2v11h23.6V301Z"/><path class="cls-1" d="M354.21,301l-3.65-12.13h-17L329.89,301H318.64l16.8-51h13.73l16.58,51Zm-12-40.9h-.37l-5.62,19.35h11.69Z"/><path class="cls-1" d="M384.3,301H373.2V250h24.18a16.59,16.59,0,0,1,6.35,1.17,13.6,13.6,0,0,1,4.86,3.33,14.9,14.9,0,0,1,3.1,5.15,19.19,19.19,0,0,1,1.1,6.64,17.43,17.43,0,0,1-2.3,9.06,13.19,13.19,0,0,1-7,5.62l10,20H401.18l-8.92-18.7h-8ZM396,272.94a5.67,5.67,0,0,0,3.91-1.28,4.79,4.79,0,0,0,1.42-3.76v-3.22a4.81,4.81,0,0,0-1.42-3.76,5.66,5.66,0,0,0-3.91-1.27H384.3v13.29Z"/><path class="cls-1" d="M442.66,301.86a25.41,25.41,0,0,1-9.35-1.64,18.62,18.62,0,0,1-7.08-4.89,22.5,22.5,0,0,1-4.53-8.11,36.29,36.29,0,0,1-1.61-11.36,37.43,37.43,0,0,1,1.61-11.43,24,24,0,0,1,4.53-8.4,18.91,18.91,0,0,1,7.08-5.15,23.86,23.86,0,0,1,9.35-1.75q7.08,0,11.69,2.88a20,20,0,0,1,7.38,9.1l-9.57,5a11.5,11.5,0,0,0-3.18-5.15c-1.44-1.29-3.54-1.93-6.32-1.93a10.21,10.21,0,0,0-7.85,3.18c-2,2.11-3,5.2-3,9.24v8.18q0,6.06,3,9.24a10.24,10.24,0,0,0,7.85,3.17,9.32,9.32,0,0,0,6.54-2.23,13.51,13.51,0,0,0,3.61-5.36l9.06,5.26a22.66,22.66,0,0,1-7.49,9A20.34,20.34,0,0,1,442.66,301.86Z"/><path class="cls-1" d="M500.51,280.1H481.08V301H470V250h11.1v20.24h19.43V250h11.1v51h-11.1Z"/><path class="cls-1" d="M540.83,301V250h11.1v41.13h19.43V301Z"/><path class="cls-1" d="M612.55,301l-3.65-12.13h-17L588.23,301H577l16.8-51h13.73l16.58,51Zm-12-40.9h-.36l-5.63,19.35H606.2Z"/><path class="cls-1" d="M631.54,250H656.3q6.36,0,9.9,3.58a12.92,12.92,0,0,1,3.54,9.5,14.27,14.27,0,0,1-.76,5,9.79,9.79,0,0,1-2.05,3.36,7.87,7.87,0,0,1-3,1.93,11.73,11.73,0,0,1-3.69.69v.44a12.29,12.29,0,0,1,3.83.66,10.93,10.93,0,0,1,3.69,2.08,11.42,11.42,0,0,1,2.81,3.69,12.25,12.25,0,0,1,1.14,5.55,16.12,16.12,0,0,1-1,5.66,14.5,14.5,0,0,1-2.74,4.64,12.87,12.87,0,0,1-4.16,3.11,12.29,12.29,0,0,1-5.26,1.13h-27Zm11.1,20.89h11a4.3,4.3,0,0,0,4.68-4.67V264a4.31,4.31,0,0,0-4.68-4.68h-11Zm0,20.75h12.79a4.84,4.84,0,0,0,3.47-1.21,4.43,4.43,0,0,0,1.27-3.39v-2.49a4.43,4.43,0,0,0-1.27-3.39,4.84,4.84,0,0,0-3.47-1.21H642.64Z"/></g></g></svg>